<svg width="35" height="35" viewBox="0 0 35 35" fill="none" xmlns="http://www.w3.org/2000/svg">
<rect width="35" height="35" rx="17.5" fill="#F4FFE5"/>
<path d="M11.2403 10.3154C11.8369 10.3154 12.3205 9.71249 12.3205 8.9687C12.3205 8.22491 11.8369 7.62195 11.2403 7.62195C10.6438 7.62195 10.1602 8.22491 10.1602 8.9687C10.1602 9.71249 10.6438 10.3154 11.2403 10.3154Z" fill="#4E944F" stroke="black" stroke-width="0.5" stroke-miterlimit="10"/>
<path d="M9.08008 14.8045C9.08008 14.8045 9.44014 12.8692 10.1603 12.4203C10.8804 11.9714 11.6005 11.9714 12.3206 12.4203C13.0407 12.8692 13.4008 14.8045 13.4008 14.8045" fill="#4E944F"/>
<path d="M9.08008 14.8045C9.08008 14.8045 9.44014 12.8692 10.1603 12.4203C10.8804 11.9714 11.6005 11.9714 12.3206 12.4203C13.0407 12.8692 13.4008 14.8045 13.4008 14.8045" stroke="black" stroke-width="0.5" stroke-linecap="round" stroke-linejoin="round"/>
<path d="M23.8399 14.5015C24.4365 14.5015 24.9201 13.8985 24.9201 13.1547C24.9201 12.4109 24.4365 11.808 23.8399 11.808C23.2434 11.808 22.7598 12.4109 22.7598 13.1547C22.7598 13.8985 23.2434 14.5015 23.8399 14.5015Z" fill="#4E944F" stroke="black" stroke-width="0.5" stroke-miterlimit="10"/>
<path d="M21.6792 18.9905C21.6792 18.9905 22.0393 17.0553 22.7594 16.6063C23.4795 16.1574 24.1996 16.1574 24.9197 16.6063C25.6398 17.0553 25.9999 18.9901 25.9999 18.9901" fill="#4E944F"/>
<path d="M21.6792 18.9905C21.6792 18.9905 22.0393 17.0553 22.7594 16.6063C23.4795 16.1574 24.1996 16.1574 24.9197 16.6063C25.6398 17.0553 25.9999 18.9901 25.9999 18.9901" stroke="black" stroke-width="0.5" stroke-linecap="round" stroke-linejoin="round"/>
<path d="M14.4786 23.7866C15.0752 23.7866 15.5588 23.1837 15.5588 22.4399C15.5588 21.6961 15.0752 21.0931 14.4786 21.0931C13.882 21.0931 13.3984 21.6961 13.3984 22.4399C13.3984 23.1837 13.882 23.7866 14.4786 23.7866Z" fill="#4E944F" stroke="black" stroke-width="0.5" stroke-miterlimit="10"/>
<path d="M12.3182 28.2758C12.3182 28.2758 12.6782 26.3405 13.3983 25.8916C14.1185 25.4427 14.8386 25.4427 15.5587 25.8916C16.2788 26.3405 16.6389 28.2754 16.6389 28.2754M22.6011 10.3766C21.082 8.14237 18.8143 6.72424 16.2813 6.72424C15.284 6.72424 14.3284 6.94421 13.443 7.34689M17.8775 27.1827C20.8346 26.4626 23.2286 23.7813 24.1522 20.2685L17.8775 27.1827ZM8.03133 16.1461C8.01031 16.4465 7.99986 16.7478 8 17.0493C8 20.629 9.46112 23.7831 11.6805 25.6357" fill="#4E944F"/>
<path d="M12.3182 28.2758C12.3182 28.2758 12.6782 26.3405 13.3983 25.8916C14.1185 25.4427 14.8386 25.4427 15.5587 25.8916C16.2788 26.3405 16.6389 28.2754 16.6389 28.2754M22.6011 10.3766C21.082 8.14237 18.8143 6.72424 16.2813 6.72424C15.284 6.72424 14.3284 6.94421 13.443 7.34689M17.8775 27.1827C20.8346 26.4626 23.2286 23.7813 24.1522 20.2685M8.03133 16.1461C8.01031 16.4465 7.99986 16.7478 8 17.0493C8 20.629 9.46112 23.7831 11.6805 25.6357" stroke="black" stroke-width="0.5" stroke-linecap="round" stroke-linejoin="round"/>
</svg>
