<svg width="18" height="21" viewBox="0 0 18 21" fill="none" xmlns="http://www.w3.org/2000/svg">
<path d="M0 1.5H18M3.27273 1.5V5.59091C3.27273 8.04545 7.36364 8.23773 7.36364 10.5C7.36364 12.7623 3.27273 12.9545 3.27273 15.4091V19.5M14.7273 1.5V5.59091C14.7273 8.04545 10.6364 8.23773 10.6364 10.5C10.6364 12.7623 14.7273 12.9545 14.7273 15.4091V19.5M0 19.5H18M7.36364 4.36364H10.6364V5.59091C10.6364 6.40909 9 7.22727 9 7.22727C9 7.22727 7.36364 6.40909 7.36364 5.59091V4.36364ZM5.72727 17.8636C5.72727 16.2273 9 14.5909 9 14.5909C9 14.5909 12.2727 16.2273 12.2727 17.8636V19.5H5.72727V17.8636Z" stroke="#4E944F" stroke-width="2"/>
</svg>
