<svg width="18" height="19" viewBox="0 0 18 19" fill="none" xmlns="http://www.w3.org/2000/svg">
<path d="M18 2.39V0.77L16.4645 0.59C16.3791 0.59 15.8673 0.5 15.0142 0.5C11.5166 0.5 8.95735 1.58 7.50711 3.47C6.3981 2.75 4.86256 2.3 3.07109 2.3C2.21801 2.3 1.62085 2.39 1.62085 2.39L0 2.66L0.0853081 4.19C0.170616 6.89 1.45024 12.02 5.88626 12.02H6.05687V15.08C2.81517 15.53 0.0853081 16.7 0.0853081 16.7V18.5H17.1469V16.7C17.1469 16.7 14.4171 15.53 11.1754 15.08V12.2C16.5498 12.11 18 5.72 18 2.39ZM8.61611 14.9H7.76303V9.86C7.76303 9.86 7.59242 6.8 5.20379 6.8C5.20379 6.8 6.48341 7.52 6.82464 10.13C6.48341 10.22 6.14218 10.22 5.88626 10.22C1.96209 10.22 1.79147 4.19 1.79147 4.19C1.79147 4.19 2.30332 4.1 3.07109 4.1C4.69194 4.1 7.33649 4.46 8.10427 6.89C8.53081 2.84 12.8815 2.3 15.0142 2.3C15.782 2.3 16.2938 2.39 16.2938 2.39C16.2938 2.39 16.2938 10.49 10.9194 10.49H10.3223C10.3223 8.69 12.0284 5.99 12.0284 5.99C9.4692 6.89 9.4692 10.4 9.4692 10.4V14.9H8.61611Z" fill="#4E944F"/>
</svg>
