<svg width="40" height="41" viewBox="0 0 40 41" fill="none" xmlns="http://www.w3.org/2000/svg">
<rect y="0.5" width="40" height="40" rx="20" fill="#4E944F"/>
<path d="M26 21.498H21V26.498C21 26.7633 20.8946 27.0176 20.7071 27.2052C20.5196 27.3927 20.2652 27.498 20 27.498C19.7348 27.498 19.4804 27.3927 19.2929 27.2052C19.1054 27.0176 19 26.7633 19 26.498V21.498H14C13.7348 21.498 13.4804 21.3927 13.2929 21.2052C13.1054 21.0176 13 20.7633 13 20.498C13 20.2328 13.1054 19.9785 13.2929 19.7909C13.4804 19.6034 13.7348 19.498 14 19.498H19V14.498C19 14.2328 19.1054 13.9785 19.2929 13.7909C19.4804 13.6034 19.7348 13.498 20 13.498C20.2652 13.498 20.5196 13.6034 20.7071 13.7909C20.8946 13.9785 21 14.2328 21 14.498V19.498H26C26.2652 19.498 26.5196 19.6034 26.7071 19.7909C26.8946 19.9785 27 20.2328 27 20.498C27 20.7633 26.8946 21.0176 26.7071 21.2052C26.5196 21.3927 26.2652 21.498 26 21.498Z" fill="white"/>
</svg>
